<?xml version="1.0" encoding="utf-8"?>
<!-- Generator: Adobe Illustrator 13.0.0, SVG Export Plug-In . SVG Version: 6.00 Build 14948)  -->
<!DOCTYPE svg PUBLIC "-//W3C//DTD SVG 1.1//EN" "http://www.w3.org/Graphics/SVG/1.1/DTD/svg11.dtd">
<svg version="1.1" id="Layer_1" xmlns="http://www.w3.org/2000/svg" xmlns:xlink="http://www.w3.org/1999/xlink" x="0px" y="0px"
	 width="2417.175px" height="1458.446px" viewBox="0 0 2417.175 1458.446" enable-background="new 0 0 2417.175 1458.446"
	 xml:space="preserve">
<path fill="none" stroke="#9DB5DD" stroke-width="3" d="M0.794,1.272c189.72,118.438,284.493,380.088,522.062,446.955
	c99.103,27.891,204.492-70.228,280.576-116.881c119.695-73.395,273.894-157.546,411.942-186.188
	c119.802-24.855,318.451-25.663,408.316,77.351c36.769,42.147,172.375,28.856,223.378,24.718
	c84.775-6.878,151.426-44.246,241.822-46.327c196.021-4.512,191.274,183.455,138.137,319.279
	c-53.714,137.295-284.849,190.643-400.178,242.109c-181.606,81.043-294.418,4.045-453.451-70.166
	c-143.522-66.972-369.026-97.921-519.52-35.408c-158.314,65.763-313.866,104.65-478.375,152.674
	c-89.367,26.088-129.894,70.774-195.908,128.853c-32.11,28.251-89.07,98.902-99.82,139.972
	c-33.314,127.271-2.302,227.489,69.679,326.934c54.904,75.852,160.882,50.671,235.705,34.155
	c90.412-19.956,120.993-89.426,186.182-145.975c142.196-123.35,249.989-140.465,432.065-88.925
	c32.276,9.136,52.303,40.599,83.218,60.23c75.55,47.976,196.822,42.232,281.289,33.312
	c200.194-21.145,367.849-133.801,516.851-265.25c98.39-86.8,192.512-59.596,306.452-32.99
	c59.032,13.781,187.759,65.354,224.819,108.678"/>
</svg>
