<?xml version="1.0" encoding="utf-8"?>
<!-- Generator: Adobe Illustrator 13.0.0, SVG Export Plug-In . SVG Version: 6.00 Build 14948)  -->
<!DOCTYPE svg PUBLIC "-//W3C//DTD SVG 1.1//EN" "http://www.w3.org/Graphics/SVG/1.1/DTD/svg11.dtd">
<svg version="1.1" id="Layer_1" xmlns="http://www.w3.org/2000/svg" xmlns:xlink="http://www.w3.org/1999/xlink" x="0px" y="0px"
	 width="2417.175px" height="1458.446px" viewBox="0 0 2417.175 1458.446" enable-background="new 0 0 2417.175 1458.446"
	 xml:space="preserve">
<path fill="none" stroke="#9DB5DD" stroke-width="3" d="M15.087-8.277c22.956-2.085,55.908,36.21,71.645,50.039
	c24.071,21.155,44.063,47.12,64.505,71.619c35.622,42.692,67.938,90.374,97.851,138.502c37.435,60.229,76.98,118.896,132.046,163.95
	c29.125,23.829,49.685,26.278,87.9,29.89c35.052,3.312,68.319,4.718,103.484,0.392c39.031-4.802,68.063-6.949,104.22-23.79
	c28.964-13.491,53.033-33.778,77.8-52.602c40.438-30.732,90.941-45.55,132.238-73.851c33.554-22.994,69.684-43.005,104.513-64.306
	c28.406-17.373,52.766-38.915,80.441-56.431c39.682-25.115,98.665-50.974,145.113-55.459c51.739-4.995,113.816-4.267,158.701,20.548
	c52.75,29.164,113.63,53.348,169.448,75.448c55.143,21.832,122.835,26.724,177.996,1.715
	c49.519-22.45,110.727-47.101,166.097-47.666c38.964-0.397,69.299,6.17,102.104,28.104c29.689,19.851,64.024,25.567,100.637,24
	c49.012-2.098,86.958-10.692,132.38,11.481c48.36,23.607,70.198,76.982,81.332,126.312c5.58,24.724,9.544,45.055,9.548,71.368
	c0.006,37.396-1.757,64.123-17.548,98.284c-13.444,29.083-32.03,54.37-46.958,82.356c-33.168,62.185-119.23,84.213-183.843,99.644
	c-55.865,13.342-111.38,14.944-165.103-3.498c-15.878-5.45-26.559-14.849-40.499-22.545
	c-32.446-17.912-75.262-18.419-112.199-21.458c-51.91-4.271-99.142,2.949-144.498,27.857
	c-72.464,39.794-135.676,72.617-220.428,76.2c-70.197,2.967-138.174-8.347-187.028-63.95
	c-53.007-60.33-118.021-90.667-201.163-94.16c-33.108-1.391-68.34-4.805-98.944,10.117c-36.576,17.833-68.8,48.843-98.288,76.395
	c-23.706,22.149-43.797,47.561-73.947,62.036c-40.633,19.509-98.034,17.903-142.313,19.505
	c-50.483,1.827-101.444,0.014-151.961-0.046c-61.9-0.073-110.781,13.729-166.682,37.901
	c-72.939,31.54-118.174,81.881-131.933,160.149c-5.21,29.642-9.828,47.306-0.092,78.42c8.312,26.562,22.327,51.584,29.362,78.473
	c14.522,55.507,53.716,92.089,96.085,129.014c33.905,29.549,69.792,62.779,113.886,75.598
	c40.697,11.831,80.314,18.438,122.687,18.445c36.924,0.006,78.414,5.611,112.733-7.355c38.287-14.466,73.548-32.365,107.506-55.143
	c53.707-36.025,91.631-97.329,153.121-122c58.259-23.375,129.262-36.305,192.046-21.502c26.998,6.365,54.065,30.795,78.174,45.505
	c23.929,14.601,49.219,27.423,74.683,38.495c73.041,31.759,169.325,52.973,248.193,56.104
	c86.088,3.417,201.871,2.508,265.046-63.809c49.582-52.048,74.511-118.911,140.747-153.7c40.763-21.409,91.604-28.022,137-30.595
	c30.719-1.74,63.45-1.903,94.203,0c23.741,1.47,42.229,10.898,63.863,18.452c42.483,14.832,86.689,19.832,131.495,15.548
	c27.415-2.621,46.878-10.95,70.93-24c20.886-11.332,47.081-16.825,65.665-30"/>
</svg>
