<?xml version="1.0" encoding="utf-8"?>
<!-- Generator: Adobe Illustrator 13.0.0, SVG Export Plug-In . SVG Version: 6.00 Build 14948)  -->
<!DOCTYPE svg PUBLIC "-//W3C//DTD SVG 1.1//EN" "http://www.w3.org/Graphics/SVG/1.1/DTD/svg11.dtd">
<svg version="1.1" id="Layer_1" xmlns="http://www.w3.org/2000/svg" xmlns:xlink="http://www.w3.org/1999/xlink" x="0px" y="0px"
	 width="3960.285px" height="351.18px" viewBox="0 0 3960.285 351.18" enable-background="new 0 0 3960.285 351.18"
	 xml:space="preserve">
<path fill="#FFFFFF" stroke="#000000" stroke-width="3" d="M0.178-438.51C249.88-389.47,471.074-205.773,698.598-43.825
	c234.494,166.909,443.037,245.53,687.033,90.36c111.923-71.178,225.372-157.373,346.489-174.019
	c56.968-7.828,114.779,2.734,167.63,39.851c61.068,42.884,127.579,39.49,188.678,87.963
	c55.628,44.133,118.041,57.216,172.319,105.743c51.416,45.977,98.754,103.257,149.136,152.096
	c102.62,99.477,210.945,110.578,326.186,68.037c107.776-39.789,204.154-127.896,296.45-224.979
	c100.621-105.838,153.81-216.989,280.014-240.324c114.131-21.103,224.447-10.754,330.432,65.729
	c108.252,78.117,210.235,189.084,329.557,216.286c270.854,61.754,559.751-80.166,821.691-172.593
	c117.506-41.458,274.525-35.892,390.279,23.623c51.4,26.426,106.424,81.8,162.357,61.78c40.898-14.643,69.371-73.857,113.793-68.669
	"/>
</svg>
